<?xml version="1.0" encoding="UTF-8"?>
<svg xmlns="http://www.w3.org/2000/svg" viewBox="0 0 64 64" role="img" aria-label="Salaf Sayings">
  <defs>
    <linearGradient id="bg" x1="8" y1="6" x2="56" y2="58" gradientUnits="userSpaceOnUse">
      <stop stop-color="#070B18"/>
      <stop offset="0.58" stop-color="#0D1731"/>
      <stop offset="1" stop-color="#0A1224"/>
    </linearGradient>
  </defs>
  <rect width="64" height="64" rx="16" fill="url(#bg)"/>
  <circle cx="20" cy="20" r="12" fill="#F59E0B" fill-opacity="0.3"/>
  <circle cx="54" cy="56" r="18" fill="#38BDF8" fill-opacity="0.26"/>
  <path d="M16 49V23.5L32 10l16 13.5V49" fill="#15213E" fill-opacity="0.9" stroke="#DDE8FF" stroke-opacity="0.75" stroke-width="1.5" stroke-linejoin="round"/>
  <path d="M24.5 24.5c0-4.4 3.1-7.2 7.3-7.2 0 2.7 0 2.7-.1 2.7-2.2 0-3.6 1.2-3.6 3.7v4.8h-4.6v-4z" fill="#FCD34D"/>
  <circle cx="26.2" cy="31.4" r="1.65" fill="#FCD34D"/>
  <path d="M39.5 24.5c0-4.4-3.1-7.2-7.3-7.2 0 2.7 0 2.7.1 2.7 2.2 0 3.6 1.2 3.6 3.7v4.8h4.6v-4z" fill="#FCD34D"/>
  <circle cx="37.8" cy="31.4" r="1.65" fill="#FCD34D"/>
  <rect x="21" y="39.5" width="22" height="2.8" rx="1.4" fill="#DDE8FF" fill-opacity="0.92"/>
</svg>