<?xml version="1.0" encoding="UTF-8"?>
<svg xmlns="http://www.w3.org/2000/svg" viewBox="0 0 64 64" role="img" aria-label="Salaf Sayings">
  <rect width="64" height="64" rx="15" fill="#101827"/>
  <path d="M46.875 8.75H51.875C52.9105 8.75 53.75 9.58947 53.75 10.625V15.625" stroke="#7A5C2E" stroke-width="0.75" stroke-linecap="round"/>
  <path d="M17.125 55.25H12.125C11.0895 55.25 10.25 54.4105 10.25 53.375V48.375" stroke="#7A5C2E" stroke-width="0.75" stroke-linecap="round"/>
  <g transform="translate(24.375, 21.875)">
    <path d="M1.875 0C0.839466 0 0 0.839466 0 1.875V9.375M6.875 0.625C5.83947 0.625 5 1.46447 5 2.5V9.375" stroke="#C5A358" stroke-width="0.625" stroke-linecap="round"/>
    <path d="M13.125 13.125C14.1605 13.125 15 12.2855 15 11.25V3.75M10.625 12.5C11.6605 12.5 12.5 11.6605 12.5 10.625V3.75" stroke="#C5A358" stroke-width="0.625" stroke-linecap="round"/>
  </g>
  <line x1="25.625" y1="40" x2="38.375" y2="40" stroke="#C5A358" stroke-width="0.5" stroke-linecap="round"/>
  <line x1="27.5" y1="42.25" x2="36.5" y2="42.25" stroke="#7A5C2E" stroke-width="0.375" stroke-linecap="round"/>
</svg>