<?xml version="1.0" encoding="UTF-8"?>
<svg xmlns="http://www.w3.org/2000/svg" viewBox="0 0 64 64" role="img" aria-label="Salaf Sayings">
  <defs>
    <linearGradient id="bg" x1="8" y1="6" x2="56" y2="58" gradientUnits="userSpaceOnUse">
      <stop stop-color="#1B2740"/>
      <stop offset="1" stop-color="#202D49"/>
    </linearGradient>
    <pattern id="dots" width="7.5" height="7.5" patternUnits="userSpaceOnUse">
      <circle cx="3.75" cy="3.75" r="0.34" fill="#53647F" fill-opacity="0.42"/>
    </pattern>
  </defs>
  <rect width="64" height="64" rx="16" fill="url(#bg)"/>
  <rect width="64" height="64" rx="16" fill="url(#dots)"/>
  <g fill="none" stroke="#C99B2E" stroke-width="1.25" stroke-linecap="round">
    <path d="M47 6h5.5c2 0 3.5 1.5 3.5 3.5V15"/>
    <path d="M8 49v5.5C8 56.5 9.5 58 11.5 58H17"/>
  </g>
  <g stroke="#D1A732" stroke-width="1.35" stroke-linecap="round" fill="none">
    <path d="M23.5 21.5v9.2"/>
    <path d="M24.6 21.5c2.5 0 4 1.6 4 4.1"/>
    <path d="M24.6 30.4c2.7 0 4.2-1.7 4.2-4.4"/>
    <path d="M39.4 21.5v9.2"/>
    <path d="M37.9 30.5c2.8 0 4.3-1.8 4.3-4.6"/>
    <path d="M38.2 30.5c2.2 0 3.5-1.4 3.5-4"/>
  </g>
  <g stroke="#C99B2E" stroke-width="1" stroke-linecap="round">
    <path d="M22.5 40h17"/>
    <path d="M24.5 42.5h13"/>
  </g>
</svg>